<?xml version="1.0" encoding="UTF-8" standalone="no"?>
<svg
   xmlns:dc="http://purl.org/dc/elements/1.1/"
   xmlns:cc="http://creativecommons.org/ns#"
   xmlns:rdf="http://www.w3.org/1999/02/22-rdf-syntax-ns#"
   xmlns:svg="http://www.w3.org/2000/svg"
   xmlns="http://www.w3.org/2000/svg"
   xmlns:xlink="http://www.w3.org/1999/xlink"
   id="svg8"
   version="1.1"
   viewBox="0 0 131.1488 131.70271"
   height="131.70271mm"
   width="131.1488mm">
  <defs
     id="defs2">
    <linearGradient
       id="linearGradient5302-6">
      <stop
         id="stop5348"
         offset="0"
         style="stop-color:#c21818;stop-opacity:0.96078432" />
      <stop
         id="stop5350"
         offset="1"
         style="stop-color:#563434;stop-opacity:1" />
    </linearGradient>
    <linearGradient
       id="linearGradient5302-6-6">
      <stop
         style="stop-color:#c21818;stop-opacity:0.96078432"
         offset="0"
         id="stop5300" />
      <stop
         style="stop-color:#563434;stop-opacity:1"
         offset="1"
         id="stop5298" />
    </linearGradient>
    <linearGradient
       id="linearGradient5204">
      <stop
         id="stop5202"
         offset="0"
         style="stop-color:#9c9da9;stop-opacity:1" />
      <stop
         id="stop5200"
         offset="1"
         style="stop-color:#5e5f6a;stop-opacity:1;" />
    </linearGradient>
    <linearGradient
       id="linearGradient4909">
      <stop
         id="stop4905"
         offset="0"
         style="stop-color:#5e5f6a;stop-opacity:1;" />
      <stop
         id="stop4907"
         offset="1"
         style="stop-color:#71727c;stop-opacity:0.90196079" />
    </linearGradient>
    <linearGradient
       id="linearGradient4898">
      <stop
         style="stop-color:#ffffff;stop-opacity:1"
         offset="0"
         id="stop4900" />
      <stop
         style="stop-color:#efebeb;stop-opacity:1"
         offset="1"
         id="stop4902" />
    </linearGradient>
    <linearGradient
       id="linearGradient4898-8">
      <stop
         id="stop4894"
         offset="0"
         style="stop-color:#ffffff;stop-opacity:1" />
      <stop
         id="stop4896"
         offset="1"
         style="stop-color:#f1f1f1;stop-opacity:1" />
    </linearGradient>
    <linearGradient
       id="linearGradient4827">
      <stop
         style="stop-color:#98a9ac;stop-opacity:1"
         offset="0"
         id="stop4825" />
      <stop
         style="stop-color:#37656d;stop-opacity:1"
         offset="1"
         id="stop4823" />
    </linearGradient>
    <radialGradient
       r="17.40386"
       fy="133.69466"
       fx="123.1731"
       cy="133.69466"
       cx="123.1731"
       gradientTransform="matrix(0.87968001,0.77117501,-0.75309247,0.85905324,116.30591,-76.127829)"
       gradientUnits="userSpaceOnUse"
       id="radialGradient4741"
       xlink:href="#linearGradient4898-8" />
    <radialGradient
       gradientUnits="userSpaceOnUse"
       gradientTransform="matrix(1,0,0,1.0147791,0,-1.9370737)"
       r="12.678918"
       fy="131.06841"
       fx="105.4538"
       cy="131.06841"
       cx="105.4538"
       id="radialGradient4751"
       xlink:href="#linearGradient4898" />
    <radialGradient
       gradientUnits="userSpaceOnUse"
       gradientTransform="matrix(1,0,0,0.63748671,-0.04724702,52.261328)"
       r="10.692198"
       fy="144.29424"
       fx="87.034439"
       cy="144.29424"
       cx="87.034439"
       id="radialGradient4759"
       xlink:href="#linearGradient4898" />
    <radialGradient
       gradientUnits="userSpaceOnUse"
       gradientTransform="matrix(1,0,0,0.74679909,0,34.430628)"
       r="8.6222439"
       fy="135.98146"
       fx="170.56953"
       cy="135.98146"
       cx="170.56953"
       id="radialGradient4775"
       xlink:href="#linearGradient4898-8" />
    <radialGradient
       gradientUnits="userSpaceOnUse"
       gradientTransform="matrix(1,0,0,0.49797152,0,63.285509)"
       r="18.821119"
       fy="126.0596"
       fx="150.15015"
       cy="126.0596"
       cx="150.15015"
       id="radialGradient4781"
       xlink:href="#linearGradient4898-8" />
    <radialGradient
       gradientUnits="userSpaceOnUse"
       gradientTransform="matrix(0.96433047,0,0,0.88873421,4.4822481,18.036368)"
       r="13.245765"
       fy="158.18822"
       fx="138.90617"
       cy="158.18822"
       cx="138.90617"
       id="radialGradient4789"
       xlink:href="#linearGradient4898" />
    <radialGradient
       gradientUnits="userSpaceOnUse"
       gradientTransform="matrix(1,0,0,1.5867875,0,-98.368902)"
       r="11.264879"
       fy="167.63974"
       fx="148.26765"
       cy="167.63974"
       cx="148.26765"
       id="radialGradient4797"
       xlink:href="#linearGradient4898-8" />
    <radialGradient
       gradientUnits="userSpaceOnUse"
       gradientTransform="matrix(1,0,0,1.5214281,0,-91.693912)"
       r="11.071094"
       fy="175.8515"
       fx="130.11186"
       cy="175.8515"
       cx="130.11186"
       id="radialGradient4805"
       xlink:href="#linearGradient4898" />
    <radialGradient
       gradientUnits="userSpaceOnUse"
       gradientTransform="matrix(1,0,0,0.96732755,0,6.4403859)"
       r="11.64288"
       fy="197.1198"
       fx="130.8745"
       cy="197.1198"
       cx="130.8745"
       id="radialGradient4813"
       xlink:href="#linearGradient4898" />
    <radialGradient
       gradientUnits="userSpaceOnUse"
       gradientTransform="matrix(1,0,0,1.2420341,0,-46.108291)"
       r="10.130509"
       fy="190.50327"
       fx="160.35712"
       cy="190.50327"
       cx="160.35712"
       id="radialGradient4821"
       xlink:href="#linearGradient4898-8" />
    <radialGradient
       r="20.334152"
       fy="136.8698"
       fx="133.9899"
       cy="136.8698"
       cx="133.9899"
       gradientTransform="matrix(1.2342985,-1.933874,1.1292469,0.7207438,-184.15516,297.50223)"
       gradientUnits="userSpaceOnUse"
       id="radialGradient4831"
       xlink:href="#linearGradient4827" />
    <linearGradient
       gradientUnits="userSpaceOnUse"
       y2="123.7924"
       x2="122.46428"
       y1="137.21056"
       x1="126.43304"
       id="linearGradient4911-1"
       xlink:href="#linearGradient4909"
       gradientTransform="matrix(0.96842103,0,0,0.96842103,4.9922697,4.8621333)" />
    <radialGradient
       gradientUnits="userSpaceOnUse"
       gradientTransform="matrix(0.32930234,0.29238573,-0.15612338,0.17583548,87.755958,61.16854)"
       r="16.063988"
       fy="4.2889051"
       fx="117.22022"
       cy="4.2889051"
       cx="117.22022"
       id="radialGradient5198"
       xlink:href="#linearGradient5204" />
    <radialGradient
       gradientTransform="matrix(2.7095731,0.2792523,-0.20395647,1.9789807,-173.30167,-158.92731)"
       gradientUnits="userSpaceOnUse"
       r="1.2027128"
       fy="128.62019"
       fx="117.73222"
       cy="128.62019"
       cx="117.73222"
       id="radialGradient5304"
       xlink:href="#linearGradient5302-6-6" />
    <radialGradient
       gradientTransform="matrix(2.709573,0.27925231,-0.20395647,1.9789807,-167.95626,-160.13003)"
       gradientUnits="userSpaceOnUse"
       r="1.2027128"
       fy="128.62019"
       fx="117.73222"
       cy="128.62019"
       cx="117.73222"
       id="radialGradient5304-8"
       xlink:href="#linearGradient5302-6" />
    <radialGradient
       gradientTransform="matrix(2.709573,0.27925231,-0.20395647,1.9789807,-163.27905,-161.06548)"
       gradientUnits="userSpaceOnUse"
       r="1.2027128"
       fy="128.62019"
       fx="117.73222"
       cy="128.62019"
       cx="117.73222"
       id="radialGradient5304-6"
       xlink:href="#linearGradient5302-6-6" />
  </defs>
  <metadata
     id="metadata5">
    <rdf:RDF>
      <cc:Work
         rdf:about="">
        <dc:format>image/svg+xml</dc:format>
        <dc:type
           rdf:resource="http://purl.org/dc/dcmitype/StillImage" />
        <dc:title></dc:title>
      </cc:Work>
    </rdf:RDF>
  </metadata>
  <g
     transform="translate(-63.082731,-90.016103)"
     id="layer6">
    <path
       id="path4848"
       d="m 134.74851,114.24851 c -1.46982,0.23281 -0.30558,-2.00932 -1.26917,-2.68381 -0.84001,-1.89281 0.0271,-3.88417 1.87416,-4.72227 1.33827,-1.03876 3.09902,-1.06586 4.69854,-0.88571 1.68484,0.31708 2.83651,1.68583 3.92505,2.8719 1.30861,0.99868 2.12476,2.44057 2.64853,3.97122 0.66195,1.46242 1.03718,3.01189 1.80427,4.43246 0.68641,1.7506 1.33458,3.51579 2.3106,5.13425 0.93901,1.92361 1.43957,4.00302 1.98558,6.05949 0.937,3.58695 2.607,6.95443 3.28988,10.60708 0.40091,2.01987 0.16247,4.40997 -1.88739,5.45785 -1.41265,1.29611 -3.42182,1.01373 -5.1014,1.62153 -1.95357,0.10864 -3.04652,-1.90977 -4.39311,-2.99902 -1.36737,-1.58736 -2.33382,-3.44425 -3.04368,-5.40452 -0.50225,-1.38336 -1.26927,-2.68912 -1.76076,-4.05095 -0.34946,-1.45286 -1.03861,-2.80025 -1.36275,-4.26218 -0.84636,-2.31398 -1.69468,-4.63252 -2.54152,-6.93754 -0.48135,-1.69918 -0.75916,-3.39344 -0.94128,-5.14687 -0.18764,-1.01661 -0.29249,-2.03 -0.23555,-3.06291 z"
       style="fill:#171c4e;fill-opacity:1;stroke:none;stroke-width:0.26458332px;stroke-linecap:butt;stroke-linejoin:miter;stroke-opacity:1" />
  </g>
  <g
     transform="translate(-63.082731,-90.016103)"
     id="layer5">
    <path
       id="path4617"
       d="m 139.47321,110.84673 c -3.79254,1.06806 -7.63084,1.88429 -11.37953,3.13843 -4.35093,1.28024 -8.76816,2.24419 -13.19971,3.17243 -3.58363,0.83331 -3.74193,6.11857 -2.34914,8.82219 0.82829,2.508 1.76622,4.96642 3.1488,7.2684 1.38453,3.26864 3.02305,6.44937 3.93759,9.89302 1.43186,3.11636 1.99982,6.60417 2.42991,10.02968 -0.0342,4.14768 4.28882,7.01799 8.13093,5.54881 3.69206,-1.11853 7.16243,-2.76699 10.60841,-4.40895 2.69507,-1.02067 5.55649,-1.51356 8.16283,-2.66755 3.92852,-1.44253 3.95614,-6.20003 2.41616,-9.42444 -1.48834,-4.09749 -3.05411,-8.15178 -4.91369,-12.09524 -1.08215,-4.09569 -1.98814,-8.27701 -3.6662,-12.16459 -0.88722,-2.38114 -1.57037,-5.27945 -3.32636,-7.11219 z"
       style="fill:url(#radialGradient4831);fill-opacity:1;stroke:none;stroke-width:0.26458332px;stroke-linecap:butt;stroke-linejoin:miter;stroke-opacity:1" />
  </g>
  <g
     transform="translate(-63.082731,-90.016103)"
     id="layer2">
    <path
       id="path4544"
       d="m 145.17692,147.05099 c -2.81284,-0.78992 -5.5088,0.86381 -8.189,1.48815 -2.25522,0.94045 -4.2748,2.44095 -6.19166,3.94844 -1.70911,1.53847 -3.14605,3.39622 -4.3873,5.30453 -0.59112,2.08098 -1.03258,4.41344 -0.40859,6.52492 1.20801,2.71691 3.42491,5.36173 6.57977,5.66416 2.17451,0.48782 4.42781,0.56083 6.56988,-0.14507 2.64348,-0.51627 5.06482,-1.77045 7.01121,-3.63216 2.43043,-1.96942 3.55813,-4.95323 4.65808,-7.7743 0.0721,-2.18364 0.99803,-4.60371 -0.0791,-6.63827 -0.79535,-2.63341 -3.68138,-2.95321 -5.52233,-4.51521 -0.23685,-0.57793 -1.38972,0.28121 -1.13442,-0.22517"
       style="fill:url(#radialGradient4789);fill-opacity:1;stroke:none;stroke-width:0.25514576px;stroke-linecap:butt;stroke-linejoin:miter;stroke-opacity:1" />
    <path
       id="path4530"
       d="m 117.55059,118.97321 c -2.30485,-1.53594 -5.12611,-0.43544 -7.15936,1.01302 -2.5364,1.45756 -4.2509,3.83556 -6.13547,5.99117 -2.04434,2.00001 -4.602619,3.46295 -6.235494,5.86755 -1.541175,2.17835 -4.031868,3.71352 -5.064253,6.20317 -0.703234,2.34212 0.38407,5.47532 3.074132,5.8413 2.635155,0.073 4.780725,-2.01981 7.236145,-2.80053 3.30366,-1.76633 6.58605,-3.65546 9.48205,-6.04743 2.28768,-2.06867 3.78538,-4.88957 4.9954,-7.68557 0.6827,-2.75957 0.4849,-5.71349 -0.19315,-8.38268 z"
       style="fill:url(#radialGradient4751);fill-opacity:1;stroke:none;stroke-width:0.26458332px;stroke-linecap:butt;stroke-linejoin:miter;stroke-opacity:1" />
    <path
       id="path4538"
       d="m 97.092633,139.52566 c -0.820789,-1.83728 -3.305035,-2.44596 -5.082015,-1.79822 -1.720569,0.40403 -3.411393,1.16923 -4.948883,1.99434 -1.690999,0.76705 -3.330907,1.67427 -5.036483,2.46781 -1.293003,0.57517 -2.254242,1.62664 -3.548531,2.17967 -1.039923,0.78793 -1.91179,1.95346 -2.175525,3.24045 -0.160763,1.60381 0.790567,3.23623 2.575383,3.13724 1.721428,0.66562 3.355299,-0.16868 5.009263,-0.6638 2.582491,-0.45418 4.468076,-2.56486 6.996082,-3.17798 2.602161,-0.82051 5.046082,-2.45169 6.438454,-4.8433 0.1951,-0.9547 0.884073,-1.70192 -0.227745,-2.53621 z"
       style="fill:url(#radialGradient4759);fill-opacity:1;stroke:none;stroke-width:0.26458332px;stroke-linecap:butt;stroke-linejoin:miter;stroke-opacity:1" />
    <path
       id="path4550"
       d="m 135.50446,159.79464 c -2.08494,-1.86028 -5.18378,-0.34076 -7.09629,1.05897 -2.68939,2.29055 -5.27377,4.94469 -6.19465,8.46985 -1.38662,2.7822 -2.04879,5.86391 -2.59218,8.92018 -0.42008,4.30468 -1.58326,9.34553 1.47168,12.99244 2.45299,2.66525 6.44571,1.08302 8.55724,-1.17992 3.84055,-3.46683 6.48593,-7.99778 8.52936,-12.69822 1.68772,-2.5472 2.62673,-5.61112 2.90808,-8.6166 -0.60999,-2.97921 -1.75063,-6.10238 -4.32757,-7.94611 -0.41181,-0.34191 -0.83416,-0.67094 -1.25567,-1.00059 z"
       style="fill:url(#radialGradient4805);fill-opacity:1;stroke:none;stroke-width:0.26458332px;stroke-linecap:butt;stroke-linejoin:miter;stroke-opacity:1" />
    <path
       id="path4558"
       d="m 157.61607,178.12649 c -1.94992,-0.28958 -4.36176,-0.46825 -5.79874,1.16105 -1.38651,2.01743 -2.11172,4.80725 -1.03807,7.12174 0.75508,1.21883 1.70322,2.31516 2.4608,3.53938 0.83101,1.30459 1.9173,2.40763 3.09105,3.40134 2.03316,2.03881 3.92006,4.2433 6.18121,6.03736 1.26828,0.91877 2.57119,1.79661 3.73048,2.85326 1.08243,0.71245 2.71959,1.24136 3.84585,0.34924 0.78369,-0.88636 0.34688,-2.17709 0.34014,-3.24413 -0.46077,-3.10069 -2.29312,-5.77041 -2.98322,-8.80762 -0.90523,-2.31523 -2.14856,-4.49549 -3.53813,-6.55078 -1.22458,-1.60777 -2.74034,-2.9652 -4.02142,-4.52279 -0.65588,-0.60252 -1.52588,-0.87177 -2.26995,-1.33805 z"
       style="fill:url(#radialGradient4821);fill-opacity:1;stroke:none;stroke-width:0.26458332px;stroke-linecap:butt;stroke-linejoin:miter;stroke-opacity:1" />
    <path
       id="path4560"
       d="m 124.73214,186.44196 c -2.56562,-1.72411 -5.35329,1.3281 -5.26834,3.91532 -0.93653,4.11873 2.20602,7.73597 5.61552,9.54405 2.57215,1.33666 5.01479,2.88453 7.26347,4.71268 2.69677,1.36166 5.2216,3.58534 8.33793,3.77053 3.26761,-0.11602 1.57002,-4.40713 1.01428,-6.3281 -0.51242,-2.5523 -2.23535,-4.48398 -4.19727,-6.08684 -2.31973,-2.81819 -5.39766,-4.79569 -8.20823,-7.07583 -1.47584,-0.89208 -2.93586,-1.83981 -4.55736,-2.45181 z"
       style="fill:url(#radialGradient4813);fill-opacity:1;stroke:none;stroke-width:0.26458332px;stroke-linecap:butt;stroke-linejoin:miter;stroke-opacity:1" />
    <path
       id="path4542"
       d="m 140.04018,117.83928 c -4.09735,-1.52759 -8.31975,-3.0674 -12.7661,-2.16187 -4.73792,0.77448 -10.12027,1.74317 -13.48912,5.46482 -2.85069,3.19244 -2.09046,7.83657 -1.9161,11.76162 0.38445,4.13368 2.0619,8.02625 4.07324,11.58771 2.17189,3.88477 4.89444,7.44128 6.6746,11.54036 2.17277,3.42585 6.22398,5.39824 10.16939,5.77015 3.90393,-0.10673 8.06386,-1.21884 11.1057,-3.75221 3.32013,-3.84191 2.9457,-9.52501 1.98842,-14.1727 -1.71545,-3.662 -2.18047,-7.68294 -3.3356,-11.51565 -1.91469,-3.84586 -2.74676,-8.09165 -2.59261,-12.36792 0.46172,-0.31937 -1.00708,-2.7757 0.0882,-2.15431 z"
       style="fill:url(#radialGradient4741);fill-opacity:1;stroke:none;stroke-width:0.26458332px;stroke-linecap:butt;stroke-linejoin:miter;stroke-opacity:1" />
    <path
       id="path4534"
       d="m 141.17411,117.46131 c -2.53218,-0.6157 -5.71782,-1.58163 -7.58823,0.95294 -2.34164,2.28406 -2.94032,6.08912 -1.70549,9.05765 1.86526,2.741 4.82216,5.16343 8.29182,5.24171 4.66392,0.26322 9.39485,-0.35637 14.00627,0.54267 3.91463,0.077 7.47192,2.11585 11.3742,2.19115 3.4236,0.0535 4.73873,-5.22803 1.75743,-6.85529 -2.5838,-1.98849 -5.85994,-2.55639 -8.73169,-3.96223 -2.59292,-1.074 -5.20238,-1.98124 -7.85467,-2.91465 -3.07585,-1.28229 -6.53275,-1.78234 -9.32433,-3.65704 -0.16329,-0.84694 -0.93338,-0.94433 -1.35924,-0.21892"
       style="fill:url(#radialGradient4781);fill-opacity:1;stroke:none;stroke-width:0.26458332px;stroke-linecap:butt;stroke-linejoin:miter;stroke-opacity:1" />
    <path
       id="path4540"
       d="m 162.71875,132.58035 c -0.84624,0.47922 -0.90589,1.61236 -0.47233,2.39176 0.4973,1.07814 1.36102,1.97041 2.45268,2.45052 1.38945,0.65691 2.88289,1.0657 4.24938,1.77725 1.22194,0.55427 2.40365,1.20854 3.70278,1.56951 1.15531,0.38189 2.28041,0.86511 3.33166,1.47385 0.804,0.24008 1.76742,0.32847 2.52289,-0.0962 0.26058,-0.56426 0.88039,-1.14935 0.73731,-1.9386 -0.0274,-0.94514 -0.30752,-1.90449 -0.95983,-2.60909 -0.96234,-1.23335 -2.14433,-2.30382 -3.50254,-3.0855 -0.87789,-0.98142 -1.81782,-1.95265 -3.02034,-2.52836 -1.31982,-0.90952 -2.71213,-1.73512 -4.16944,-2.39699 -1.43842,-0.34798 -2.6527,0.71225 -3.84898,1.3222 -0.55331,0.37802 -0.98908,0.98392 -1.02324,1.66962 z"
       style="fill:url(#radialGradient4775);fill-opacity:1;stroke:none;stroke-width:0.26458332px;stroke-linecap:butt;stroke-linejoin:miter;stroke-opacity:1" />
    <path
       id="path4548"
       d="m 151.37946,152.61309 c -1.47982,-2.21288 -4.33498,-3.53494 -6.89972,-2.41977 -4.08746,0.92108 -6.82163,4.88092 -7.26416,8.89857 -0.77681,3.85829 0.68759,8.06159 3.43911,10.82822 1.97695,2.89689 3.93951,5.89261 5.4663,9.08993 1.44407,2.41 4.0531,3.81048 6.24067,5.46748 2.15933,1.93751 4.97625,0.63883 5.96461,-1.7972 2.1482,-3.68407 0.76856,-8.05031 0.39676,-12.00144 -0.80048,-3.30962 -1.75096,-6.59886 -2.7012,-9.86618 -1.21017,-2.92751 -2.13514,-6.06558 -4.64237,-8.19961 z"
       style="fill:url(#radialGradient4797);fill-opacity:1;stroke:none;stroke-width:0.26458332px;stroke-linecap:butt;stroke-linejoin:miter;stroke-opacity:1" />
  </g>
  <g
     transform="translate(-63.082731,-90.016103)"
     id="layer7">
    <path
       id="path4851"
       d="m 117.83389,188.81662 c -0.5602,0.30987 -0.13372,1.01784 -0.1339,1.49496 0.25205,2.20976 1.56985,4.08433 2.20319,6.18015 0.32445,0.87313 1.26404,1.62673 2.22981,1.36666 0.71197,-0.1606 1.05047,-0.86317 1.59579,-1.2723 1.25446,-1.07557 2.74206,-1.84448 3.96252,-2.96288 1.17535,-0.65049 2.35997,-1.62959 2.61535,-3.01966 0.10529,-0.48386 0.0719,-1.05685 -0.50456,-1.1813 -1.39381,-0.58508 -2.92953,-0.16174 -4.38524,-0.31427 -1.67199,0.0459 -3.38264,0.0976 -5.00106,-0.39588 -0.71681,-0.10824 -1.49803,-0.12036 -2.16277,0.20325 0.36861,2.30906 1.6914,-0.47529 -0.41913,-0.0987 z"
       style="fill:#171c4e;fill-opacity:1;stroke:none;stroke-width:0.28225169px;stroke-linecap:butt;stroke-linejoin:miter;stroke-opacity:1" />
    <path
       id="path4855"
       d="m 157.61607,178.12649 c 0.25733,-0.0445 1.07506,0.37392 0.45402,0.0883 -0.70331,-0.27546 -1.39041,0.15114 -2.09998,0.12283 -1.05311,0.0922 -2.19862,0.16619 -3.05859,0.85357 -0.93341,0.5574 -1.54285,1.4902 -2.31733,2.22699 -0.49756,0.69044 -0.35089,1.60084 -0.68368,2.35507 -0.0329,0.69664 0.8195,0.9889 1.36822,0.71795 0.77391,-0.17626 1.57538,-0.21388 2.35968,-0.0964 0.95134,0.0424 1.89919,-0.25288 2.66689,-0.81097 1.49828,-0.8021 3.0282,-1.85516 3.70246,-3.47944 0.29604,-0.64716 0.0544,-1.6749 -0.81061,-1.6343 -0.53579,-0.0359 -1.16734,0.0945 -1.58108,-0.34355 z"
       style="fill:#171c4e;fill-opacity:1;stroke:none;stroke-width:0.26458332px;stroke-linecap:butt;stroke-linejoin:miter;stroke-opacity:1" />
  </g>
  <g
     transform="translate(-63.082731,-90.016103)"
     id="layer4">
    <path
       id="path4602"
       d="m 176.70387,135.79315 c 0.8925,1.65967 -1.45741,2.92374 -1.8154,4.51125 -1.64443,1.52178 -0.39269,3.24036 1.19287,4.07254 2.10147,1.43489 3.37698,4.00383 5.90057,4.78231 1.86312,0.77903 4.52804,0.0859 4.84879,-2.17282 0.36992,-2.07222 -1.15811,-3.81057 -2.16008,-5.46301 -2.01694,-2.64325 -4.76483,-4.74842 -7.96675,-5.73027 z"
       style="fill:#171c4e;fill-opacity:1;stroke:none;stroke-width:0.26458332px;stroke-linecap:butt;stroke-linejoin:miter;stroke-opacity:1" />
    <path
       id="path4604"
       d="m 179.91666,148.07738 c 0.26491,-2.5741 -0.47211,1.61351 -0.94024,2.24845 -0.63141,1.34432 -2.09471,5.0431 0.76206,4.21362 1.34297,-0.93761 0.95994,-4.94153 3.52583,-3.65745 1.32172,1.67295 2.56657,3.47782 4.33201,4.7457 1.66028,1.80401 3.07247,-0.28145 1.46905,-1.75391 -0.64028,-0.9687 -3.38797,-2.30961 -2.78669,-3.16069 2.15961,0.55421 3.71651,2.80065 6.04981,2.67118 1.91474,-0.8708 -1.54375,-2.87215 -2.46142,-3.73342 -0.78195,-0.48679 -3.26837,-1.97455 -0.90956,-1.55904 1.55719,-0.0648 4.94384,1.90641 5.27402,-0.25396 -1.9182,-0.93998 -4.12252,-1.27505 -6.12709,-2.09032 1.25601,-0.75974 4.37426,1.15195 5.76405,-0.51689 -0.84928,-1.35589 -3.79479,-1.57465 -5.58838,-1.49237 -2.3697,-0.3098 -4.71628,0.16312 -6.45462,1.83915 -1.01437,0.43654 -2.31908,1.16058 -1.90883,2.49995 z"
       style="fill:#171c4e;fill-opacity:1;stroke:none;stroke-width:0.26458332px;stroke-linecap:butt;stroke-linejoin:miter;stroke-opacity:1" />
    <path
       id="path4608"
       d="m 78.430058,144.29762 c 0.774159,1.19281 1.576032,2.39948 2.715897,3.27794 0.684596,0.70291 1.113662,1.6096 1.689703,2.39882 -0.146438,1.2786 -1.981834,0.8689 -2.582649,1.86935 -0.666549,0.80856 -0.825924,1.91818 -1.588058,2.66362 -0.671467,0.99148 -0.853322,2.24921 -1.609727,3.18493 -0.731833,0.95647 -2.621215,0.29555 -1.644156,-0.91308 0.63103,-0.71566 1.017351,-1.56992 1.216612,-2.49689 0.142388,-0.93919 -1.325902,-1.48886 -1.924364,-0.77994 -0.582523,0.4997 -0.965402,1.21144 -1.667065,1.57013 -0.562964,0.44715 -0.672177,1.18148 -1.219399,1.66212 -0.451504,0.64678 -0.992875,1.237 -1.639675,1.68085 -0.495246,0.70721 -1.97899,0.9885 -2.162958,-0.10919 -8.17e-4,-1.06941 1.052536,-1.6779 1.519747,-2.54312 0.716569,-1.01778 1.517822,-1.97833 2.416126,-2.84102 -0.168068,-0.67114 -1.253999,0.56762 -1.702914,0.76499 -1.08743,0.79137 -2.322096,1.36264 -3.588427,1.79188 -1.005618,0.47504 -2.128727,1.23862 -3.281177,0.84237 -0.744698,-0.52837 0.08887,-1.4318 0.656492,-1.72151 0.646346,-0.35159 1.30998,-0.68127 1.875993,-1.15361 1.019028,-0.5611 2.169367,-0.90899 3.039009,-1.71457 0.250284,-0.14768 1.107129,-0.68078 0.339427,-0.38966 -0.89954,0.69443 -1.902181,1.22931 -3.02149,1.45161 -0.944928,0.16117 -2.129872,1.23637 -2.962049,0.54541 -0.08923,-1.00955 1.325502,-1.42141 2.078561,-1.82794 1.318138,-0.54075 2.478648,-1.3949 3.794864,-1.93886 -0.874174,-0.0999 -1.689591,0.43505 -2.553198,0.52977 -0.808954,-0.005 -2.413762,0.78107 -2.70346,-0.28848 0.282776,-0.8694 1.2379,-1.20191 2.076175,-1.15544 1.751302,-0.21392 3.48571,-0.6154 5.098751,-1.3444 1.501623,-0.46832 2.89412,-1.21804 4.374288,-1.74678 0.843969,-0.34133 1.591215,-0.88096 2.469074,-1.14556 -0.200149,0.0854 0.08002,-0.12994 0.112062,-0.12359"
       style="fill:#171c4e;fill-opacity:1;stroke:none;stroke-width:0.26458332px;stroke-linecap:butt;stroke-linejoin:miter;stroke-opacity:1" />
    <path
       id="path4612"
       d="m 140.98512,199.86012 c -2.00013,-1.83764 -2.92345,1.82547 -3.32268,3.31078 -0.15011,1.45226 -1.62358,3.62852 0.0444,4.64653 1.65068,0.90769 3.13107,2.03098 3.9111,3.73964 0.74061,1.94172 1.52769,3.8914 2.35597,5.80841 0.94557,1.59546 2.41558,2.74655 3.70039,4.05261 1.31725,0.58424 2.6159,0.40264 2.53406,-1.30982 0.0991,-2.0118 0.005,-4.05099 0.0371,-6.07414 -0.246,-1.40373 -1.28859,-3.10028 -0.71812,-4.39092 1.64407,0.42244 1.18007,-2.84352 1.29454,-4.06298 -0.64946,-1.6471 -2.62333,-1.54537 -3.81328,-2.55773 -1.46461,-1.13833 -3.4849,-1.22785 -4.86395,-2.48514 -0.38738,-0.22425 -0.75716,-0.47989 -1.1596,-0.67724 z"
       style="fill:#171c4e;fill-opacity:1;stroke:none;stroke-width:0.26458332px;stroke-linecap:butt;stroke-linejoin:miter;stroke-opacity:1" />
    <path
       id="path4614"
       d="m 168.76637,194.75744 c -1.97021,1.02525 -3.57979,2.5588 -5.07715,4.16921 -1.69642,1.01779 0.74093,2.45594 1.29931,3.48812 0.82334,1.35566 0.83486,3.08361 1.9185,4.31752 1.23062,1.20149 1.91978,2.78086 3.06313,4.04968 1.46021,1.6049 3.22449,3.03994 5.25412,3.84394 2.65616,0.70485 2.02466,-2.88875 2.04694,-4.46633 -0.0113,-1.75262 -0.58126,-3.41321 -1.32512,-4.97172 -0.52408,-1.42376 -1.38309,-2.68176 -2.36373,-3.80948 -1.39779,-0.7452 -1.56676,-2.21694 -2.20891,-3.37841 -0.88545,-1.10176 -1.96932,-1.96054 -2.60709,-3.24253 z"
       style="fill:#171c4e;fill-opacity:1;stroke:none;stroke-width:0.26458332px;stroke-linecap:butt;stroke-linejoin:miter;stroke-opacity:1" />
  </g>
  <g
     transform="translate(-63.082731,-90.016103)"
     id="layer8">
    <path
       id="path4892-9"
       d="m 114.62128,126.30099 1.8302,13.17743 21.77939,-4.39247 -3.29436,-12.99444 z"
       style="fill:url(#linearGradient4911-1);fill-opacity:1;stroke:none;stroke-width:0.25622806px;stroke-linecap:butt;stroke-linejoin:miter;stroke-opacity:1" />
    <circle
       r="1.2027128"
       cy="128.48656"
       cx="119.46947"
       id="path5296"
       style="opacity:1;fill:url(#radialGradient5304);fill-opacity:1;stroke:none;stroke-width:0.26499999;stroke-miterlimit:4;stroke-dasharray:none;stroke-opacity:1" />
    <circle
       r="1.2027128"
       cy="127.28384"
       cx="124.81487"
       id="path5296-2"
       style="opacity:1;fill:url(#radialGradient5304-8);fill-opacity:1;stroke:none;stroke-width:0.26499999;stroke-miterlimit:4;stroke-dasharray:none;stroke-opacity:1" />
    <circle
       r="1.2027128"
       cy="126.3484"
       cx="129.49208"
       id="path5296-23"
       style="opacity:1;fill:url(#radialGradient5304-6);fill-opacity:1;stroke:none;stroke-width:0.26499999;stroke-miterlimit:4;stroke-dasharray:none;stroke-opacity:1" />
  </g>
  <g
     transform="translate(-63.082731,-90.016103)"
     id="layer10">
    <path
       id="path5211"
       d="m 117.55059,94.782737 c -5.45375,0.259938 -8.28929,6.617543 -6.76143,11.392913 0.51141,4.86692 6.32286,4.94976 8.07567,8.6642 0.40887,3.89189 4.92792,4.32682 6.70038,1.11469 0.88383,-3.47846 0.15599,-7.31377 2.22606,-10.69226 1.36709,-5.461244 -3.68199,-11.370031 -9.26133,-10.830909 l -0.50081,0.144169 z"
       style="fill:#000000;fill-opacity:0.90196078;stroke:#000000;stroke-width:0.26458332px;stroke-linecap:butt;stroke-linejoin:miter;stroke-opacity:1" />
  </g>
  <g
     transform="translate(-63.082731,-90.016103)"
     style="opacity:0.98999999"
     id="layer9">
    <ellipse
       ry="15.40253"
       rx="16.063988"
       cy="105.41863"
       cx="119.67532"
       id="path5190"
       style="opacity:1;fill:url(#radialGradient5198);fill-opacity:1;stroke:none;stroke-width:0.26499999;stroke-miterlimit:4;stroke-dasharray:none;stroke-opacity:1" />
  </g>
</svg>
