<?xml version="1.0" encoding="UTF-8" standalone="no"?>
<svg
   xmlns:dc="http://purl.org/dc/elements/1.1/"
   xmlns:cc="http://creativecommons.org/ns#"
   xmlns:rdf="http://www.w3.org/1999/02/22-rdf-syntax-ns#"
   xmlns:svg="http://www.w3.org/2000/svg"
   xmlns="http://www.w3.org/2000/svg"
   id="svg8"
   version="1.1"
   viewBox="0 0 64.160599 38.125454"
   height="38.125454mm"
   width="64.160599mm">
  <defs
     id="defs2" />
  <metadata
     id="metadata5">
    <rdf:RDF>
      <cc:Work
         rdf:about="">
        <dc:format>image/svg+xml</dc:format>
        <dc:type
           rdf:resource="http://purl.org/dc/dcmitype/StillImage" />
        <dc:title></dc:title>
      </cc:Work>
    </rdf:RDF>
  </metadata>
  <g
     transform="translate(-72.41412,-87.989399)"
     id="layer1">
    <g
       id="g827">
      <path
         id="path821"
         d="m 72.41412,126.11485 c 8.913338,-5.88777 18.100425,-11.39805 26.511359,-18.00836 7.728941,-5.39149 15.827931,-10.245052 24.111121,-14.720549 3.67758,-2.665298 8.02317,-4.226282 12.35762,-5.396542 3.04663,1.31402 -1.41368,4.424355 -3.38026,4.385009 -1.27469,0.592434 -3.07355,0.489067 -3.66266,0.172835 -2.93086,1.987784 -6.28562,3.259079 -9.55574,4.581876 1.43795,-0.990081 1.8572,-0.860023 0.20196,0.06161 -4.49875,3.070621 -9.16336,5.941391 -14.15938,8.135591 -0.89535,0.75252 -3.65653,2.51818 -5.362319,3.53671 -0.53894,0.38558 -1.523159,0.73868 -0.649277,0.65478 -0.766788,0.63154 -2.118044,0.86599 -1.716658,0.66253 -1.019626,0.93617 -4.522366,2.37634 -4.502148,1.50856 2.896443,-1.81 6.28473,-2.7346 8.902222,-4.98496 3.34391,-2.18001 6.80063,-4.23816 10.50915,-5.73903 1.39508,-1.319325 3.76212,-2.521211 5.54188,-3.789706 2.81956,-1.934264 5.96492,-3.281334 9.12977,-4.519338 1.96748,-1.02909 5.63682,-3.409137 7.24283,-1.969139 -3.45024,-0.321561 -6.72082,1.040655 -9.65279,2.74862 -7.0372,3.893017 -14.08165,7.810943 -20.61765,12.516983 -9.589342,6.61279 -18.85833,13.7902 -29.179194,19.25524 -0.679236,0.32609 -1.368983,0.63056 -2.069836,0.90728 z"
         style="opacity:1;fill:#ffdd55;fill-opacity:0.90196078;stroke:none;stroke-width:0.26511249;stroke-miterlimit:4;stroke-dasharray:none;stroke-opacity:1" />
      <path
         id="path823"
         d="m 130.89607,92.447504 c -4.16731,1.620239 -8.48156,2.904202 -12.46238,4.970878 0.68777,-0.319031 -2.17952,1.37135 -2.98357,1.809003 -3.63226,1.916375 -7.31691,3.720815 -10.81356,5.871635 -1.2002,0.79737 -3.00373,0.10184 -0.95715,-0.77676 2.86722,-1.27762 5.75713,-2.46263 8.44179,-4.12299 2.61181,-1.322999 4.59686,-2.409492 6.96659,-3.917498 4.67756,-2.745403 9.87851,-4.38036 14.92977,-6.277771 -1.04052,0.814473 -2.08086,1.629173 -3.12149,2.443503 z"
         style="opacity:1;fill:#ffdd55;fill-opacity:0.90196078;stroke:none;stroke-width:0.26511249;stroke-miterlimit:4;stroke-dasharray:none;stroke-opacity:1" />
    </g>
    <ellipse
       ry="1.2695302"
       rx="1.4699824"
       cy="89.264763"
       cx="135.10474"
       id="path849"
       style="opacity:1;fill:#ffffff;fill-opacity:0.90196078;stroke:none;stroke-width:0.26511249;stroke-miterlimit:4;stroke-dasharray:none;stroke-opacity:1" />
  </g>
</svg>
